# xmcd
#
# Track frame offsets: 
#        150
#        13163
#        25994
#        40440
#        53986
#        66995
#        80695
#        94022
#        106962
#        119385
#        131711
#        144550
#        156903
#        169864
#        180721
#        195292
#        207980
#        223341
#        234673
#        249057
#        261523
#        273732
#        287102
#        300435
#
# Disc length: 4183 seconds
#
# Revision: 1
# Processed by: cddbd v1.5.2PL0 Copyright (c) Steve Scherf et al.
# Submitted via: ExactAudioCopyFreeDBPlugin 1.0
#
DISCID=6e105518
DTITLE=Harry Reser' Six Jumping Jacks - Harry Reser's Six Jumping Jack
DTITLE=s - 1926-1930
DYEAR=2006
DGENRE=Jazz
TTITLE0=Chareston Ball
TTITLE1=Harry Reser' Six Jumping Jacks v. Earl Oliver - Say Mister! Ha
TTITLE1=ve You Met Rosie's Sister?
TTITLE2=Harry Reser' Six Jumping Jacks v. Earl Oliver - Sittin' Around
TTITLE3=Harry Reser' Six Jumping Jacks v. Earl Oliver - Lo-Do-De-O
TTITLE4=Harry Reser' Six Jumping Jacks v. Earl Oliver - Cock-a-doodle,
TTITLE4=I'm Off My Noodle, My Baby's Back
TTITLE5=Harry Reser' Six Jumping Jacks v. Tom Stacks - I Wonder How I 
TTITLE5=Look When I'm Asleep
TTITLE6=Harry Reser' Six Jumping Jacks v. Tom Stacks - Just the Same
TTITLE7=Harry Reser' Six Jumping Jacks v. Tom Stacks - There's a Trick
TTITLE7=in Pickin' A Chick-Chick-Chicken
TTITLE8=Positively-Absolutely
TTITLE9=Harry Reser' Six Jumping Jacks v. Tom Stacks - She's Got "It"
TTITLE10=Harry Reser' Six Jumping Jacks v. Tom Stacks - Gonna Get a Gi
TTITLE10=rl
TTITLE11=I'm Gonna Dance Wit de Guy Wot Brung Me
TTITLE12=Harry Reser' Six Jumping Jacks v. Trio (T. Stacks, Larry Abbo
TTITLE12=tt, H. Resser) - Fair Co-ed
TTITLE13=Hey! Hey! Hazel
TTITLE14=Harry Reser' Six Jumping Jacks v. Trio (T. Stacks, Larry Abbo
TTITLE14=tt, H. Resser) - Etiquette Blues
TTITLE15=When Sweet Susie Goes Steppin' By
TTITLE16=Nagasaki
TTITLE17=The Prune Song (No Matter How Young a Prune May Be It's Alway
TTITLE17=s Full of Wrinkles)
TTITLE18=I Never Kissed a Baby Like You
TTITLE19=She's Got Great Ideas
TTITLE20=Oh! Baby, What a Night
TTITLE21=Piccolo Pete
TTITLE22=He's a Big Man From the South (with a Big Cigar in His Mouth)
TTITLE23=Harry Reser' Six Jumping Jacks v. Tom Stacks - Twenty Swedes 
TTITLE23=Ran through the Weeds (Chasing One Norwegian)
EXTD=YEAR: 1926
EXTT0=
EXTT1=
EXTT2=
EXTT3=
EXTT4=
EXTT5=
EXTT6=
EXTT7=
EXTT8=
EXTT9=
EXTT10=
EXTT11=
EXTT12=
EXTT13=
EXTT14=
EXTT15=
EXTT16=
EXTT17=
EXTT18=
EXTT19=
EXTT20=
EXTT21=
EXTT22=
EXTT23=
PLAYORDER=
